<svg xmlns="http://www.w3.org/2000/svg" viewBox="0 0 1600 1000" role="img" aria-labelledby="title desc">
  <title id="title">Teste de mesa binário</title>
  <desc id="desc">Quadro visual para tabela de teste de mesa</desc>
  <rect width="1600" height="1000" fill="#f8fafc"/>
  <text x="120" y="135" font-family="Inter, Arial, sans-serif" font-size="70" font-weight="800" fill="#0f172a">Teste de mesa: 1011₂</text>
  <rect x="130" y="220" width="1340" height="560" fill="#ffffff" stroke="#0f172a" stroke-width="5"/>
  <path d="M130 330h1340M130 440h1340M130 550h1340M130 660h1340M465 220v560M800 220v560M1135 220v560" stroke="#94a3b8" stroke-width="4"/>
  <g font-family="ui-monospace, SFMono-Regular, Menlo, monospace" font-size="42" fill="#0f172a"><text x="210" y="290">Dígito</text><text x="565" y="290">Peso</text><text x="900" y="290">Conta</text><text x="1215" y="290">Resultado</text><text x="250" y="400">1</text><text x="600" y="400">8</text><text x="885" y="400">1×8</text><text x="1260" y="400">8</text><text x="250" y="510">0</text><text x="600" y="510">4</text><text x="885" y="510">0×4</text><text x="1260" y="510">0</text><text x="250" y="620">1</text><text x="600" y="620">2</text><text x="885" y="620">1×2</text><text x="1260" y="620">2</text><text x="250" y="730">1</text><text x="600" y="730">1</text><text x="885" y="730">1×1</text><text x="1260" y="730">1</text></g>
  <text x="470" y="900" font-family="ui-monospace, SFMono-Regular, Menlo, monospace" font-size="54" fill="#16a34a">8 + 0 + 2 + 1 = 11</text>
</svg>
